<svg width="300" height="111" viewBox="0 0 300 111" fill="none" xmlns="http://www.w3.org/2000/svg">
<path fill-rule="evenodd" clip-rule="evenodd" d="M59.998 37.8778C61.1328 34.7486 62.7654 32.0991 66.1319 30.9692C70.3735 30.4347 73.8554 31.3243 77.3154 33.0578C78.7848 33.7939 80.417 34.1934 82.0531 34.5938C83.4627 34.9387 84.8751 35.2844 86.1886 35.8467C90.6398 37.7521 95.0402 39.8551 99.2199 42.2901C101.936 43.8726 102.54 47.0199 103.073 49.7993C103.149 50.1968 103.224 50.5867 103.303 50.9634C103.682 52.765 102.991 55.7335 100.909 57.5194C100.205 58.1235 99.6127 58.8545 99.019 59.5871L99.0174 59.5887L99.0158 59.5904L99.0141 59.592C98.5802 60.1272 98.1456 60.6631 97.6666 61.1514C96.2553 62.5898 94.3959 63.1444 92.4502 63.2759C90.925 63.3791 89.4017 63.6638 87.8781 63.9485C84.1165 64.6516 80.3523 65.3551 76.5491 63.3287C75.2643 62.6441 73.6881 62.0285 72.2914 62.1151C66.4915 62.4747 63.8789 58.2167 61.9211 54.2424C59.4502 49.2269 57.9026 43.6559 59.998 37.8778ZM81.6676 52.1939C80.7477 52.5869 79.4729 52.996 79.4333 52.8994C79.3505 52.6972 79.2596 52.4899 79.1674 52.2796C78.75 51.3283 78.3055 50.3148 78.4643 49.4295C79.1348 45.6925 80.0748 41.9984 81.0676 38.33C81.1897 37.8788 81.6564 37.521 82.1231 37.1632C82.3386 36.998 82.5541 36.8327 82.7356 36.6583C82.9229 36.8733 83.1598 37.0872 83.3967 37.3011C83.9088 37.7635 84.4209 38.2259 84.4318 38.6998C84.4445 39.2596 84.467 39.822 84.4894 40.3857L84.4901 40.4025L84.4902 40.4048L84.4905 40.4119L84.4906 40.4144L84.4909 40.4215L84.4909 40.4239L84.491 40.4263C84.6519 44.4657 84.8151 48.5632 81.6676 52.1939Z" fill="#F9ED32"/>
<path d="M81.6644 52.196C80.7445 52.589 79.4697 52.9981 79.4301 52.9015C78.9727 51.7844 78.2671 50.5127 78.4611 49.4316C79.1315 45.6946 80.0716 42.0005 81.0644 38.332C81.2428 37.6726 82.1576 37.2125 82.7324 36.6604C83.3246 37.3403 84.4126 38.0087 84.4286 38.7019C84.5344 43.2873 85.2616 48.0465 81.6644 52.196Z" fill="black"/>
<path fill-rule="evenodd" clip-rule="evenodd" d="M195.473 58.7578C194.424 55.624 194.17 52.4581 195.674 49.3551C199.113 39.5775 206.103 35.0614 214.822 32.1665C219.26 30.6932 223.627 30.4125 228.109 30.5793C232.917 30.7583 237.205 32.266 240.828 35.7548C243.334 38.1687 244.209 41.2905 244.565 44.2486C246.219 57.9967 239.244 67.277 226.831 72.1542C220.56 74.6185 213.408 74.7821 206.902 71.1314C205.904 70.5716 204.796 70.1373 203.695 69.7058C201.821 68.9716 199.968 68.2455 198.716 66.9232C197.345 65.4751 196.747 63.2723 196.155 61.0944C195.94 60.2996 195.725 59.5081 195.473 58.7578ZM223.682 47.167C223.67 47.9298 223.679 48.6743 223.687 49.4029C223.717 52.0619 223.744 54.5092 222.803 56.8626C222.646 57.2535 222.468 57.6354 222.289 58.0174C222.207 58.193 222.124 58.3687 222.044 58.5452C221.866 58.4239 221.657 58.3148 221.449 58.2057C220.995 57.9678 220.541 57.7298 220.39 57.3662C219.617 55.4995 218.984 53.563 218.464 51.6087C218.188 50.5714 218.328 49.5678 219.929 49.7448C220.162 49.7706 220.428 49.5107 220.693 49.2508C220.815 49.1311 220.937 49.0113 221.056 48.9196L220.708 48.6496C220.448 48.4477 220.187 48.245 219.928 48.0421C217.683 46.2855 218.122 42.0568 220.753 41.1045C221.428 40.8599 222.31 40.7219 222.988 42.1976C223.492 43.2961 223.53 44.3122 223.573 45.4646C223.593 45.996 223.614 46.5563 223.682 47.167Z" fill="#F9ED32"/>
<path d="M223.673 47.1633C223.62 50.71 223.993 53.8606 222.794 56.8589C222.565 57.4295 222.289 57.9811 222.035 58.5415C221.466 58.1558 220.601 57.8929 220.381 57.3625C219.608 55.4958 218.974 53.5593 218.454 51.605C218.178 50.5677 218.318 49.5641 219.919 49.7411C220.261 49.7788 220.669 49.2069 221.047 48.9159C220.671 48.6234 220.294 48.332 219.918 48.0384C217.673 46.2818 218.113 42.0531 220.743 41.1008C221.419 40.8562 222.301 40.7182 222.979 42.1939C223.716 43.7989 223.457 45.228 223.673 47.1633Z" fill="black"/>
<path d="M141.813 19.3391C137.188 18.9706 132.374 17.7269 127.485 14.7734C115.771 7.69769 85.7663 2.92557 76.7735 2.60419C51.4418 1.69738 26.4731 1.66422 3.40507 4.36599L3.5536 21.6322C10.0259 24.2729 11.864 28.8408 12.5691 34.3013C15.8186 59.4689 20.8641 80.9533 31.3569 90.086C38.8084 96.5725 48.2564 102.33 66.3154 102.416C85.5527 102.508 106.156 97.9307 116.583 86.6724C125.738 76.789 135.466 61.4288 139.396 44.4004C140.877 37.9843 145.53 35.2897 150.705 35.4737C155.88 35.6578 160.33 38.6762 161.351 45.1813C164.062 62.446 172.675 78.4585 181.103 88.9673C190.705 100.938 210.93 106.967 230.125 108.243C248.145 109.439 257.978 104.368 265.872 98.4276C276.986 90.0626 283.545 68.9918 288.575 44.1187C289.667 38.7222 291.825 34.2964 298.468 32.1222L299.843 14.9102C277.024 10.5762 252.116 8.8353 226.785 7.94005C217.792 7.62162 187.525 10.2498 175.337 16.4755C170.25 19.0741 165.36 19.9727 160.721 20.0117C154.415 20.0647 148.1 19.8401 141.813 19.3391L141.813 19.3391ZM68.2651 10.9995C73.8613 11.1885 79.5236 11.526 84.8865 11.6358C89.5274 11.7307 121.516 11.9915 125.996 31.395C130.266 49.8902 122.137 72.9217 106.125 85.5341C94.9687 94.3227 51.9924 102.762 35.9781 82.4982C25.0018 68.6089 23.0136 56.2909 22.3961 39.2912C22.0051 28.5219 25.1464 17.6594 42.8117 12.7065C49.8308 10.7386 58.9379 10.6826 68.2651 10.9981L68.2651 10.9995ZM215.14 16.2238C216.468 16.2638 217.471 16.3431 218.051 16.3724C223.408 16.644 229.08 16.7096 234.675 16.9187C244.001 17.2667 253.082 17.9697 259.943 20.4313C277.212 26.6267 279.574 37.6851 278.418 48.3992C276.595 65.3122 273.736 77.4578 261.801 90.532C244.387 109.606 202.119 98.1355 191.615 88.5764C176.54 74.8571 170.067 51.3061 175.641 33.1623C180.758 16.5056 205.843 15.9421 215.14 16.2252L215.14 16.2238ZM10.5893 13.0041L23.6276 13.4678L23.5172 16.5736L10.4788 16.1098L10.5893 13.0041ZM279.029 22.5524L292.067 23.0161L291.957 26.1219L278.919 25.6581L279.029 22.5524Z" fill="#595BD4"/>
</svg>
