<svg width="160" height="62" viewBox="0 0 160 62" fill="none" xmlns="http://www.w3.org/2000/svg">
<path fill-rule="evenodd" clip-rule="evenodd" d="M11.3997 21.1894C11.6153 20.5954 11.9255 20.0925 12.5651 19.8781C13.371 19.7766 14.0326 19.9455 14.69 20.2745C14.9692 20.4142 15.2793 20.49 15.5902 20.566C15.858 20.6315 16.1264 20.6971 16.3759 20.8038C17.2217 21.1655 18.0577 21.5647 18.8519 22.0268C19.368 22.3272 19.4827 22.9246 19.5839 23.4521C19.5984 23.5275 19.6126 23.6016 19.6277 23.6731C19.6998 24.015 19.5683 24.5784 19.1729 24.9174C19.0391 25.0321 18.9265 25.1708 18.8137 25.3099L18.8134 25.3102L18.8131 25.3105L18.8128 25.3108C18.7303 25.4124 18.6478 25.5141 18.5568 25.6068C18.2886 25.8798 17.9353 25.985 17.5656 26.01C17.2758 26.0296 16.9864 26.0836 16.6969 26.1377C15.9822 26.2711 15.267 26.4046 14.5444 26.02C14.3003 25.8901 14.0008 25.7732 13.7354 25.7897C12.6335 25.8579 12.1371 25.0498 11.7651 24.2954C11.2956 23.3435 11.0016 22.2861 11.3997 21.1894ZM15.5169 23.9066C15.3422 23.9812 15.0999 24.0589 15.0924 24.0405C15.0767 24.0021 15.0594 23.9628 15.0419 23.9229C14.9626 23.7423 14.8781 23.5499 14.9083 23.3819C15.0357 22.6726 15.2143 21.9715 15.4029 21.2752C15.4261 21.1896 15.5148 21.1216 15.6035 21.0537C15.6444 21.0224 15.6854 20.991 15.7199 20.9579C15.7554 20.9987 15.8005 21.0393 15.8455 21.0799C15.9428 21.1677 16.0401 21.2554 16.0421 21.3454C16.0446 21.4516 16.0488 21.5584 16.0531 21.6654L16.0532 21.6686L16.0532 21.669L16.0533 21.6703L16.0533 21.6708L16.0534 21.6722L16.0534 21.6726L16.0534 21.6731C16.084 22.4398 16.115 23.2175 15.5169 23.9066Z" fill="#F9ED32"/>
<path d="M15.5163 23.907C15.3415 23.9816 15.0993 24.0592 15.0918 24.0409C15.0049 23.8288 14.8708 23.5875 14.9077 23.3823C15.0351 22.673 15.2137 21.9718 15.4023 21.2755C15.4362 21.1504 15.61 21.063 15.7192 20.9583C15.8317 21.0873 16.0385 21.2142 16.0415 21.3457C16.0616 22.2161 16.1998 23.1194 15.5163 23.907Z" fill="black"/>
<path fill-rule="evenodd" clip-rule="evenodd" d="M37.1401 25.1524C36.9407 24.5576 36.8925 23.9567 37.1782 23.3678C37.8316 21.5119 39.1598 20.6548 40.8165 20.1053C41.6595 19.8257 42.4894 19.7724 43.341 19.8041C44.2545 19.838 45.0693 20.1242 45.7575 20.7864C46.2338 21.2446 46.3999 21.8371 46.4675 22.3986C46.7819 25.008 45.4565 26.7694 43.0982 27.6951C41.9066 28.1629 40.5477 28.1939 39.3115 27.501C39.1219 27.3947 38.9114 27.3123 38.7021 27.2304C38.3462 27.0911 37.9941 26.9532 37.7562 26.7023C37.4957 26.4274 37.382 26.0093 37.2697 25.5959C37.2287 25.4451 37.1879 25.2948 37.1401 25.1524ZM42.4998 22.9525C42.4976 23.0973 42.4992 23.2386 42.5007 23.3768C42.5064 23.8815 42.5117 24.346 42.3327 24.7927C42.303 24.8669 42.2691 24.9394 42.2351 25.0119C42.2195 25.0452 42.2039 25.0786 42.1887 25.1121C42.1547 25.0891 42.1151 25.0684 42.0755 25.0477C41.9892 25.0025 41.903 24.9573 41.8744 24.8883C41.7275 24.534 41.6071 24.1665 41.5083 23.7955C41.4559 23.5986 41.4825 23.4082 41.7867 23.4417C41.831 23.4466 41.8814 23.3973 41.9318 23.348C41.955 23.3253 41.9782 23.3025 42.0009 23.2851L41.9348 23.2339C41.8854 23.1955 41.8357 23.1571 41.7865 23.1186C41.3599 22.7852 41.4435 21.9825 41.9432 21.8018C42.0715 21.7554 42.2392 21.7292 42.3679 22.0093C42.4637 22.2178 42.4709 22.4106 42.4791 22.6293C42.4828 22.7302 42.4868 22.8366 42.4998 22.9525Z" fill="#F9ED32"/>
<path d="M42.498 22.9518C42.488 23.6249 42.5589 24.2229 42.331 24.792C42.2876 24.9003 42.2352 25.005 42.1869 25.1114C42.0787 25.0382 41.9143 24.9883 41.8726 24.8876C41.7257 24.5333 41.6053 24.1657 41.5065 23.7948C41.4541 23.5979 41.4807 23.4074 41.7849 23.441C41.8497 23.4482 41.9274 23.3396 41.9991 23.2844C41.9276 23.2289 41.856 23.1736 41.7847 23.1178C41.3581 22.7844 41.4417 21.9818 41.9414 21.8011C42.0698 21.7546 42.2374 21.7285 42.3662 22.0086C42.5062 22.3132 42.457 22.5844 42.498 22.9518Z" fill="black"/>
<path d="M26.9446 17.6706C26.0659 17.6007 25.1513 17.3646 24.2223 16.8041C21.9966 15.461 16.2957 14.5553 14.587 14.4943C9.774 14.3222 5.02993 14.3159 0.646977 14.8287L0.675197 18.1059C1.90494 18.6071 2.25419 19.4741 2.38815 20.5105C3.00556 25.2874 3.96421 29.3652 5.95785 31.0987C7.37365 32.3298 9.16877 33.4225 12.6 33.4389C16.2551 33.4564 20.1697 32.5876 22.1509 30.4507C23.8903 28.5748 25.7386 25.6594 26.4854 22.4274C26.7668 21.2096 27.6509 20.6981 28.6341 20.7331C29.6173 20.768 30.4629 21.3409 30.6569 22.5756C31.1719 25.8525 32.8084 28.8917 34.4098 30.8863C36.2341 33.1583 40.077 34.3028 43.7241 34.5448C47.1478 34.772 49.0161 33.8095 50.5159 32.6819C52.6277 31.0942 53.8739 27.0949 54.8296 22.3739C55.0369 21.3496 55.447 20.5096 56.7093 20.0969L56.9705 16.83C52.6349 16.0074 47.9023 15.677 43.0894 15.5071C41.3808 15.4466 35.6299 15.9455 33.3143 17.1271C32.3477 17.6203 31.4185 17.7909 30.5372 17.7983C29.3389 17.8084 28.1392 17.7657 26.9445 17.6706L26.9446 17.6706ZM12.9704 16.0878C14.0337 16.1236 15.1096 16.1877 16.1285 16.2085C17.0103 16.2265 23.0881 16.276 23.9394 19.9589C24.7507 23.4694 23.2061 27.8408 20.1639 30.2347C18.0442 31.9028 9.87862 33.5047 6.83588 29.6585C4.75038 27.0222 4.37261 24.6842 4.25529 21.4576C4.18101 19.4136 4.77786 17.3518 8.13428 16.4117C9.46792 16.0382 11.1983 16.0276 12.9705 16.0875L12.9704 16.0878ZM40.8768 17.0793C41.1291 17.0869 41.3197 17.102 41.4298 17.1075C42.4477 17.1591 43.5254 17.1715 44.5885 17.2112C46.3605 17.2773 48.0857 17.4107 49.3894 17.8779C52.6706 19.0538 53.1193 21.1528 52.8997 23.1864C52.5533 26.3965 52.0101 28.7018 49.7424 31.1833C46.4338 34.8037 38.4027 32.6265 36.407 30.8121C33.5428 28.2082 32.3129 23.7381 33.372 20.2943C34.3441 17.1328 39.1104 17.0259 40.8768 17.0796L40.8768 17.0793ZM2.01198 16.4682L4.48928 16.5562L4.46829 17.1457L1.99099 17.0577L2.01198 16.4682ZM53.0158 18.2805L55.4931 18.3686L55.4721 18.958L52.9948 18.87L53.0158 18.2805Z" fill="#595BD4"/>
<path d="M74.328 34.408C74.3493 34.4933 74.36 34.568 74.36 34.632C74.36 34.7173 74.36 34.7813 74.36 34.824C74.36 35.0373 74.3067 35.1867 74.2 35.272C74.1147 35.3573 73.9333 35.4 73.656 35.4C73.4 35.4 73.2293 35.3573 73.144 35.272C73.016 35.144 72.8453 34.8133 72.632 34.28C72.4187 33.7467 72.1947 33.1173 71.96 32.392C71.7253 31.6667 71.4907 30.888 71.256 30.056C71.0427 29.224 70.8507 28.4347 70.68 27.688C70.4453 27.7947 70.1253 27.912 69.72 28.04C69.3147 28.1467 68.8987 28.2533 68.472 28.36C67.9813 28.4667 67.4693 28.584 66.936 28.712C66.744 29.6293 66.5947 30.4187 66.488 31.08C66.4027 31.72 66.3173 32.2533 66.232 32.68C66.168 33.0853 66.072 33.384 65.944 33.576C65.8373 33.7893 65.656 33.896 65.4 33.896C65.2293 33.896 65.08 33.8 64.952 33.608C64.824 33.416 64.76 33.128 64.76 32.744C64.76 32.552 64.8133 32.104 64.92 31.4C65.0267 30.696 65.144 29.9173 65.272 29.064C65.4 28.1893 65.528 27.3253 65.656 26.472C65.784 25.6187 65.8693 24.9467 65.912 24.456C65.9333 24.2 65.9973 23.784 66.104 23.208C66.232 22.632 66.36 22.0453 66.488 21.448C66.616 20.8293 66.744 20.2747 66.872 19.784C67 19.2933 67.0853 19.016 67.128 18.952C67.4693 18.1627 67.6827 17.352 67.768 16.52C67.8747 15.688 67.9493 14.9307 67.992 14.248C68.056 13.544 68.152 12.9787 68.28 12.552C68.408 12.104 68.6747 11.88 69.08 11.88C69.1867 11.88 69.2933 11.9653 69.4 12.136C69.528 12.3067 69.6453 12.5093 69.752 12.744C69.8587 12.9787 69.944 13.2133 70.008 13.448C70.072 13.6613 70.1147 13.832 70.136 13.96C70.1573 14.088 70.1787 14.344 70.2 14.728C70.2427 15.112 70.2747 15.5387 70.296 16.008C70.3387 16.456 70.3707 16.904 70.392 17.352C70.4347 17.7787 70.4667 18.1093 70.488 18.344C70.552 19.048 70.648 19.8373 70.776 20.712C70.9253 21.5867 71.0747 22.408 71.224 23.176C71.3733 23.944 71.512 24.5947 71.64 25.128C71.768 25.64 71.864 25.896 71.928 25.896C72.0133 25.896 72.12 25.8747 72.248 25.832C72.3973 25.7893 72.536 25.768 72.664 25.768C72.8347 25.768 72.92 25.8533 72.92 26.024C72.92 26.1947 72.8773 26.3333 72.792 26.44C72.7067 26.5467 72.6107 26.6427 72.504 26.728C72.4187 26.8133 72.3333 26.888 72.248 26.952C72.184 27.016 72.152 27.0907 72.152 27.176C72.152 27.3467 72.248 27.784 72.44 28.488L72.952 30.376C72.9947 30.5467 73.0907 30.8347 73.24 31.24C73.3893 31.6453 73.5387 32.072 73.688 32.52C73.8587 32.9467 74.008 33.3413 74.136 33.704C74.264 34.088 74.328 34.3227 74.328 34.408ZM67.224 27.08C67.352 27.08 67.5867 27.048 67.928 26.984C68.2693 26.8987 68.6213 26.8027 68.984 26.696C69.3467 26.5893 69.6667 26.4827 69.944 26.376C70.2213 26.2693 70.36 26.184 70.36 26.12C70.36 26.056 70.3173 25.896 70.232 25.64C70.168 25.3627 70.0827 25.0213 69.976 24.616C69.8907 24.1893 69.7947 23.7093 69.688 23.176C69.5813 22.6427 69.4853 22.0773 69.4 21.48C69.3573 21.096 69.304 20.5733 69.24 19.912C69.176 19.2507 69.112 18.6 69.048 17.96C68.984 17.2987 68.9307 16.7333 68.888 16.264C68.8453 15.7947 68.824 15.56 68.824 15.56C68.824 15.56 68.792 15.72 68.728 16.04C68.664 16.3387 68.5893 16.68 68.504 17.064C68.44 17.4267 68.376 17.7787 68.312 18.12C68.2693 18.44 68.248 18.6213 68.248 18.664V19.56C68.248 19.6027 68.216 19.7947 68.152 20.136C68.1093 20.456 68.0453 20.872 67.96 21.384C67.8747 21.8747 67.7787 22.4187 67.672 23.016C67.5867 23.592 67.5013 24.1467 67.416 24.68C67.3307 25.2133 67.256 25.6933 67.192 26.12C67.1493 26.5253 67.128 26.8027 67.128 26.952C67.128 27.0373 67.16 27.08 67.224 27.08ZM87.552 23.752C87.552 24.3067 87.392 24.84 87.072 25.352C86.7733 25.864 86.4 26.344 85.952 26.792C85.504 27.2187 85.0133 27.624 84.48 28.008C83.9467 28.3707 83.456 28.6907 83.008 28.968C82.5813 29.2667 82.2293 29.512 81.952 29.704C81.6747 29.896 81.536 30.0453 81.536 30.152C81.536 30.4293 81.568 30.824 81.632 31.336C81.696 31.8267 81.7707 32.3707 81.856 32.968C81.9627 33.544 82.0587 34.1413 82.144 34.76C82.2507 35.3787 82.3253 35.944 82.368 36.456C82.368 36.4773 82.3787 36.5733 82.4 36.744C82.4427 36.9147 82.4853 37.1067 82.528 37.32C82.592 37.5333 82.6347 37.7253 82.656 37.896C82.6987 38.088 82.72 38.2053 82.72 38.248C82.72 38.3973 82.7093 38.5573 82.688 38.728C82.688 38.92 82.656 39.0907 82.592 39.24C82.5493 39.4107 82.4747 39.5493 82.368 39.656C82.2613 39.7627 82.1227 39.816 81.952 39.816C81.7173 39.816 81.5467 39.7093 81.44 39.496C81.3333 39.304 81.28 39.112 81.28 38.92C81.28 38.8773 81.28 38.8347 81.28 38.792C81.3013 38.7493 81.312 38.696 81.312 38.632C81.312 38.3973 81.2267 37.768 81.056 36.744C80.8853 35.72 80.6933 34.4933 80.48 33.064C80.2667 31.656 80.0747 30.1413 79.904 28.52C79.7333 26.8773 79.648 25.3307 79.648 23.88C79.648 23.7733 79.6587 23.656 79.68 23.528C79.7013 23.3787 79.712 23.2507 79.712 23.144C79.4987 23.1653 79.1787 23.2613 78.752 23.432C78.3467 23.6027 77.9413 23.816 77.536 24.072C77.1307 24.3067 76.768 24.5627 76.448 24.84C76.1493 25.096 76 25.3307 76 25.544H75.776C75.712 25.544 75.6373 25.5013 75.552 25.416C75.4453 25.3307 75.36 25.2347 75.296 25.128C75.2107 25.0213 75.136 24.9147 75.072 24.808C75.008 24.7013 74.976 24.6267 74.976 24.584C74.976 24.136 75.2427 23.72 75.776 23.336C76.3093 22.9307 76.9707 22.5787 77.76 22.28C78.5707 21.96 79.456 21.7147 80.416 21.544C81.376 21.352 82.2827 21.256 83.136 21.256C83.968 21.256 84.6613 21.352 85.216 21.544C85.792 21.736 86.2507 21.9707 86.592 22.248C86.9333 22.504 87.1787 22.7707 87.328 23.048C87.4773 23.3253 87.552 23.56 87.552 23.752ZM85.984 23.656C85.984 23.4427 85.7173 23.2293 85.184 23.016C84.6507 22.7813 84.0213 22.664 83.296 22.664C82.656 22.664 82.1867 22.6853 81.888 22.728C81.5893 22.7707 81.3867 22.8133 81.28 22.856C81.2373 23.1973 81.2053 23.6027 81.184 24.072C81.1627 24.5413 81.152 25.0213 81.152 25.512C81.152 26.024 81.1627 26.5253 81.184 27.016C81.2267 27.4853 81.2693 27.88 81.312 28.2C81.6107 28.008 82.016 27.752 82.528 27.432C83.0613 27.0907 83.584 26.7173 84.096 26.312C84.608 25.8853 85.0453 25.448 85.408 25C85.792 24.5307 85.984 24.0827 85.984 23.656ZM99.6145 23.752C99.6145 24.3067 99.4545 24.84 99.1345 25.352C98.8358 25.864 98.4625 26.344 98.0145 26.792C97.5665 27.2187 97.0758 27.624 96.5425 28.008C96.0092 28.3707 95.5185 28.6907 95.0705 28.968C94.6438 29.2667 94.2918 29.512 94.0145 29.704C93.7372 29.896 93.5985 30.0453 93.5985 30.152C93.5985 30.4293 93.6305 30.824 93.6945 31.336C93.7585 31.8267 93.8332 32.3707 93.9185 32.968C94.0252 33.544 94.1212 34.1413 94.2065 34.76C94.3132 35.3787 94.3878 35.944 94.4305 36.456C94.4305 36.4773 94.4412 36.5733 94.4625 36.744C94.5052 36.9147 94.5478 37.1067 94.5905 37.32C94.6545 37.5333 94.6972 37.7253 94.7185 37.896C94.7612 38.088 94.7825 38.2053 94.7825 38.248C94.7825 38.3973 94.7718 38.5573 94.7505 38.728C94.7505 38.92 94.7185 39.0907 94.6545 39.24C94.6118 39.4107 94.5372 39.5493 94.4305 39.656C94.3238 39.7627 94.1852 39.816 94.0145 39.816C93.7798 39.816 93.6092 39.7093 93.5025 39.496C93.3958 39.304 93.3425 39.112 93.3425 38.92C93.3425 38.8773 93.3425 38.8347 93.3425 38.792C93.3638 38.7493 93.3745 38.696 93.3745 38.632C93.3745 38.3973 93.2892 37.768 93.1185 36.744C92.9478 35.72 92.7558 34.4933 92.5425 33.064C92.3292 31.656 92.1372 30.1413 91.9665 28.52C91.7958 26.8773 91.7105 25.3307 91.7105 23.88C91.7105 23.7733 91.7212 23.656 91.7425 23.528C91.7638 23.3787 91.7745 23.2507 91.7745 23.144C91.5612 23.1653 91.2412 23.2613 90.8145 23.432C90.4092 23.6027 90.0038 23.816 89.5985 24.072C89.1932 24.3067 88.8305 24.5627 88.5105 24.84C88.2118 25.096 88.0625 25.3307 88.0625 25.544H87.8385C87.7745 25.544 87.6998 25.5013 87.6145 25.416C87.5078 25.3307 87.4225 25.2347 87.3585 25.128C87.2732 25.0213 87.1985 24.9147 87.1345 24.808C87.0705 24.7013 87.0385 24.6267 87.0385 24.584C87.0385 24.136 87.3052 23.72 87.8385 23.336C88.3718 22.9307 89.0332 22.5787 89.8225 22.28C90.6332 21.96 91.5185 21.7147 92.4785 21.544C93.4385 21.352 94.3452 21.256 95.1985 21.256C96.0305 21.256 96.7238 21.352 97.2785 21.544C97.8545 21.736 98.3132 21.9707 98.6545 22.248C98.9958 22.504 99.2412 22.7707 99.3905 23.048C99.5398 23.3253 99.6145 23.56 99.6145 23.752ZM98.0465 23.656C98.0465 23.4427 97.7798 23.2293 97.2465 23.016C96.7132 22.7813 96.0838 22.664 95.3585 22.664C94.7185 22.664 94.2492 22.6853 93.9505 22.728C93.6518 22.7707 93.4492 22.8133 93.3425 22.856C93.2998 23.1973 93.2678 23.6027 93.2465 24.072C93.2252 24.5413 93.2145 25.0213 93.2145 25.512C93.2145 26.024 93.2252 26.5253 93.2465 27.016C93.2892 27.4853 93.3318 27.88 93.3745 28.2C93.6732 28.008 94.0785 27.752 94.5905 27.432C95.1238 27.0907 95.6465 26.7173 96.1585 26.312C96.6705 25.8853 97.1078 25.448 97.4705 25C97.8545 24.5307 98.0465 24.0827 98.0465 23.656ZM115.389 25.672C115.389 25.9707 115.304 26.28 115.133 26.6C114.984 26.92 114.792 27.24 114.557 27.56C114.322 27.88 114.066 28.1893 113.789 28.488C113.512 28.7653 113.256 29.0107 113.021 29.224C112.445 29.736 111.848 30.2267 111.229 30.696C110.632 31.144 110.002 31.5493 109.341 31.912C108.701 32.2747 108.029 32.5627 107.325 32.776C106.621 32.9893 105.885 33.096 105.117 33.096C102.792 33.096 101.629 31.9013 101.629 29.512C101.629 29.2773 101.725 28.8187 101.917 28.136C102.109 27.4533 102.354 26.6747 102.653 25.8C102.952 24.9253 103.304 24.008 103.709 23.048C104.114 22.088 104.53 21.2133 104.957 20.424C105.384 19.6133 105.8 18.952 106.205 18.44C106.632 17.928 107.026 17.672 107.389 17.672C107.624 17.672 107.794 17.7467 107.901 17.896C108.029 18.0453 108.093 18.2053 108.093 18.376C108.072 18.504 107.922 18.7813 107.645 19.208C107.368 19.6133 107.08 20.0293 106.781 20.456C106.738 20.52 106.664 20.6267 106.557 20.776C106.45 20.9253 106.344 21.0747 106.237 21.224C106.109 21.3947 105.981 21.576 105.853 21.768C105.768 21.9173 105.576 22.3013 105.277 22.92C105 23.5173 104.701 24.2213 104.381 25.032C104.061 25.8213 103.773 26.6533 103.517 27.528C103.261 28.3813 103.133 29.128 103.133 29.768C103.133 30.1307 103.208 30.4187 103.357 30.632C103.528 30.8453 103.72 31.0053 103.933 31.112C104.168 31.2187 104.402 31.2933 104.637 31.336C104.893 31.3573 105.117 31.368 105.309 31.368C106.098 31.368 106.93 31.1973 107.805 30.856C108.701 30.4933 109.554 30.024 110.365 29.448C111.176 28.872 111.922 28.2107 112.605 27.464C113.288 26.696 113.821 25.9067 114.205 25.096C114.29 24.9467 114.376 24.8507 114.461 24.808C114.568 24.7653 114.664 24.744 114.749 24.744C114.92 24.744 115.069 24.8613 115.197 25.096C115.325 25.3307 115.389 25.5227 115.389 25.672ZM133.324 26.344C133.324 26.728 133.142 27.208 132.78 27.784C132.438 28.3387 131.969 28.8827 131.372 29.416C130.774 29.9493 130.081 30.408 129.292 30.792C128.502 31.1547 127.681 31.336 126.828 31.336C126.444 31.336 126.038 31.272 125.612 31.144C125.185 31.016 124.769 30.8347 124.364 30.6C123.958 30.344 123.596 30.0453 123.276 29.704C122.956 29.3413 122.721 28.936 122.572 28.488C122.444 28.616 122.284 28.8293 122.092 29.128C121.921 29.4267 121.729 29.736 121.516 30.056C121.302 30.3547 121.068 30.6213 120.812 30.856C120.556 31.0693 120.289 31.176 120.012 31.176C119.734 31.176 119.5 31.0373 119.308 30.76C119.137 30.4613 118.998 30.1413 118.892 29.8C118.785 29.4373 118.71 29.096 118.668 28.776C118.625 28.456 118.604 28.2747 118.604 28.232C118.604 27.976 118.678 27.496 118.828 26.792C118.977 26.0667 119.201 25.32 119.5 24.552C119.798 23.784 120.172 23.1013 120.62 22.504C121.089 21.9067 121.633 21.608 122.252 21.608C122.486 21.608 122.636 21.7147 122.7 21.928C122.785 22.12 122.828 22.312 122.828 22.504V23.464C122.934 23.5493 123.041 23.6133 123.148 23.656C123.276 23.6773 123.382 23.72 123.468 23.784C123.574 23.8267 123.649 23.9013 123.692 24.008C123.756 24.1147 123.788 24.2853 123.788 24.52C123.788 24.6693 123.777 24.808 123.756 24.936C123.734 25.0427 123.724 25.1493 123.724 25.256C123.724 25.8107 123.766 26.3547 123.852 26.888C123.937 27.4213 124.108 27.9013 124.364 28.328C124.62 28.7333 124.972 29.0747 125.42 29.352C125.868 29.608 126.465 29.736 127.212 29.736C128.15 29.736 128.94 29.544 129.58 29.16C130.241 28.7547 130.785 28.3173 131.212 27.848C131.66 27.3573 132.012 26.92 132.268 26.536C132.524 26.1307 132.737 25.928 132.908 25.928C133.185 25.928 133.324 26.0667 133.324 26.344ZM122.092 24.936C122.092 24.8507 122.07 24.776 122.028 24.712C121.985 24.6267 121.964 24.552 121.964 24.488C121.964 24.4027 121.985 24.328 122.028 24.264C122.07 24.2 122.092 24.1147 122.092 24.008C122.092 23.944 122.07 23.9013 122.028 23.88C121.985 23.8373 121.964 23.7947 121.964 23.752C121.772 23.7947 121.569 23.976 121.356 24.296C121.164 24.616 120.972 24.9893 120.78 25.416C120.609 25.8427 120.47 26.28 120.364 26.728C120.257 27.1547 120.204 27.5067 120.204 27.784C120.204 27.9333 120.246 28.1787 120.332 28.52C120.417 28.8613 120.513 29.0853 120.62 29.192C120.982 28.4453 121.313 27.72 121.612 27.016C121.932 26.312 122.092 25.6187 122.092 24.936ZM142.198 18.536C141.92 18.856 141.526 19.176 141.014 19.496C140.502 19.7947 139.99 20.072 139.478 20.328C138.966 20.584 138.518 20.808 138.134 21C137.75 21.1707 137.558 21.288 137.558 21.352C137.558 21.416 137.6 21.608 137.686 21.928C137.771 22.248 137.867 22.632 137.974 23.08C138.102 23.5067 138.23 23.9547 138.358 24.424C138.486 24.8933 138.592 25.3093 138.678 25.672C138.72 25.8853 138.774 26.1627 138.838 26.504C138.902 26.8453 138.955 27.1867 138.998 27.528C139.062 27.8693 139.115 28.1787 139.158 28.456C139.2 28.712 139.222 28.8507 139.222 28.872C139.222 29.192 139.168 29.5227 139.062 29.864C138.955 30.2053 138.784 30.376 138.55 30.376C138.422 30.376 138.304 30.3227 138.198 30.216C138.091 30.1093 137.995 29.992 137.91 29.864C137.824 29.7147 137.76 29.576 137.718 29.448C137.675 29.32 137.654 29.224 137.654 29.16C137.654 29.1173 137.654 29.0533 137.654 28.968C137.675 28.8827 137.686 28.7867 137.686 28.68C137.686 28.2747 137.622 27.688 137.494 26.92C137.451 26.6853 137.366 26.3227 137.238 25.832C137.11 25.3413 136.982 24.84 136.854 24.328C136.704 23.7307 136.534 23.08 136.342 22.376C136.256 22.0773 136.203 21.928 136.182 21.928C136.032 21.928 135.776 22.024 135.414 22.216C135.072 22.3867 134.678 22.6107 134.23 22.888C133.782 23.144 133.312 23.432 132.822 23.752C132.331 24.0507 131.872 24.3387 131.445 24.616C131.019 24.872 130.656 25.096 130.357 25.288C130.037 25.4587 129.845 25.544 129.781 25.544C129.504 25.544 129.28 25.448 129.109 25.256C128.939 25.064 128.853 24.8507 128.853 24.616C128.853 24.488 129.035 24.3067 129.397 24.072C129.739 23.816 130.176 23.5387 130.709 23.24C131.221 22.9413 131.787 22.632 132.405 22.312C133.003 21.992 133.558 21.704 134.07 21.448C134.603 21.192 135.04 20.9787 135.382 20.808C135.744 20.6373 135.926 20.552 135.926 20.552C135.734 19.5707 135.574 18.696 135.446 17.928C135.339 17.2667 135.232 16.6587 135.126 16.104C135.04 15.5493 134.998 15.2507 134.998 15.208C134.998 14.9307 135.051 14.728 135.158 14.6C135.286 14.4507 135.424 14.376 135.574 14.376C135.808 14.376 135.958 14.536 136.022 14.856C136.256 16.008 136.47 17.032 136.661 17.928C136.875 18.824 137.078 19.5493 137.27 20.104C137.462 20.0613 137.792 19.944 138.262 19.752C138.731 19.5387 139.222 19.3147 139.734 19.08C140.246 18.8453 140.704 18.6427 141.11 18.472C141.536 18.28 141.782 18.184 141.845 18.184C141.974 18.184 142.048 18.2267 142.07 18.312C142.112 18.3973 142.155 18.472 142.198 18.536Z" fill="black"/>
<path d="M145.984 30.952C145.984 31.08 145.92 31.208 145.792 31.336C145.664 31.4427 145.515 31.5493 145.344 31.656C145.195 31.7413 145.046 31.816 144.896 31.88C144.747 31.9227 144.662 31.944 144.64 31.944C144.448 31.944 144.299 31.9013 144.192 31.816C144.107 31.7093 144.032 31.6027 143.968 31.496C143.926 31.368 143.894 31.2507 143.872 31.144C143.872 31.0373 143.872 30.9627 143.872 30.92C143.872 30.8347 143.894 30.728 143.936 30.6C143.979 30.4507 144.043 30.312 144.128 30.184C144.214 30.056 144.31 29.9493 144.416 29.864C144.544 29.7573 144.683 29.704 144.832 29.704C145.11 29.704 145.366 29.8213 145.6 30.056C145.856 30.2907 145.984 30.5893 145.984 30.952Z" fill="#595BD4"/>
</svg>
