<svg width="202" height="36" viewBox="0 0 202 36" fill="none" xmlns="http://www.w3.org/2000/svg"><path d="M112 29v1h-1l-1-1a37 37 0 01-2-6v-3a11 11 0 01-3 1l-2 1a66 66 0 00-1 6h-1l-1-1v-2a2610 2610 0 006-24l1 1a6 6 0 010 1v1a25 25 0 010 3 184 184 0 012 10v1h1v3l1 3v1a55 55 0 011 4zm-9-9h1a34 34 0 003-2v-1l-1-2a40 40 0 010-7l-1-2V5v1a160 160 0 010 3v2a55 55 0 01-1 6 178 178 0 00-1 3zM129 15l-1 2-1 2a17 17 0 01-4 3 329 329 0 01-2 3 164 164 0 001 10v1l-1-1v-1-2a288 288 0 01-3-17l-2 1-1 1-1 1-1-1 1-2 3-1 3-1 3-1 3 1 2 1 1 1zm-2 0h-1l-3-1a14 14 0 00-2 0 20 20 0 000 4 45 45 0 000 3 137 137 0 013-2l2-2 1-2z" fill="#000"/><path d="M144 15l-1 2-1 2a17 17 0 01-4 3 329 329 0 01-2 3 164 164 0 001 10v1l-1-1v-1-2a277 277 0 01-3-17l-2 1-1 1-1 1v-1h-1l1-2 3-1 3-1 3-1 3 1 2 1 1 1zm-2 0h-1l-2-1a14 14 0 00-3 0 20 20 0 000 4 43 43 0 000 3 160 160 0 015-4l1-2zM164 18l-1 1v1a13 13 0 01-2 2 37 37 0 01-5 4l-2 1h-3c-3 0-5-1-5-4l1-2a57 57 0 015-12l2-1v2a173 173 0 01-1 2h-1v1a35 35 0 00-4 10l1 1v1h2l3-1a16 16 0 008-7h1l1 1zM186 19l-1 2-1 2-3 1-3 1h-2l-1-1-2-1v-2l-1 1-1 1-1 1-1 1v-1a6 6 0 01-1-2v-1-2l1-3 1-2 2-1h1v2l1 1v3l1 2 1 1 2 1 3-1 2-1 2-2 1-1v1zm-14-2v-1-1l-1 1-1 2a12 12 0 000 3 4 4 0 000 1l1-2 1-3z" fill="#000"/><path d="M197 9l-1 1-2 1-2 1h-1l1 1a54 54 0 011 6 21 21 0 010 2v3h-1v-1l-1-1h1a15 15 0 00-1-4 191 191 0 01-1-5l-1 1h-2a36 36 0 00-3 3 51 51 0 00-2 1l-1-1h-1l1-1 2-1a48 48 0 016-4 121 121 0 01-1-7h1a411 411 0 003 6 709 709 0 005-1zM202 24v1a5 5 0 01-1 1h-1l-1-1v-1a2 2 0 011-1h1l1 1z" fill="#000"/><path fill-rule="evenodd" clip-rule="evenodd" d="M16 12l1-2 3 1h2l4 2 1 2-1 2v1h-1l-1 1h-4l-1-1c-2 0-2-1-3-2v-4zm5 4l-1-1 1-3h1v1l-1 3z" fill="#FF9102"/><path d="M21 16l-1-1 1-3h1l-1 4z" fill="#11274D"/><path fill-rule="evenodd" clip-rule="evenodd" d="M51 17v-2c1-3 3-4 5-5h3l4 1 1 3c0 3-2 6-5 7h-5l-1-1h-1l-1-2v-1zm7-3v3h-1v-1-1h1-1v-2h1v1z" fill="#FF9102"/><path d="M58 14v3h-1v-1-1h1-1v-2h1v1z" fill="#11274D"/><path d="M37 7l-4-1c-3-2-11-3-13-3H1v5c2 0 2 2 2 3 1 7 2 12 5 15 2 1 5 3 9 3 5 0 11-1 13-4 3-3 5-7 6-11l3-3c2 0 3 1 3 3l5 11c3 4 8 5 13 5 5 1 7-1 9-2 3-2 5-8 6-14 0-2 1-3 3-4V6L59 4 46 6l-4 1h-5zM18 5h4c1 0 10 0 11 5s-1 11-5 14c-3 3-14 5-19 0-2-4-3-7-3-12 0-3 1-5 5-7h7zm38 1h5l7 1c4 2 5 5 4 8 0 4-1 7-4 11-4 5-15 2-18-1-4-3-6-10-4-14 1-5 8-5 10-5zM3 5l3 1H3V5zm70 3h3v1h-3V8z" fill="#1B4DE5"/></svg>