<svg width="113" height="62" viewBox="0 0 113 62" fill="none" xmlns="http://www.w3.org/2000/svg">
<path d="M21.328 34.408C21.3493 34.4933 21.36 34.568 21.36 34.632C21.36 34.7173 21.36 34.7813 21.36 34.824C21.36 35.0373 21.3067 35.1867 21.2 35.272C21.1147 35.3573 20.9333 35.4 20.656 35.4C20.4 35.4 20.2293 35.3573 20.144 35.272C20.016 35.144 19.8453 34.8133 19.632 34.28C19.4187 33.7467 19.1947 33.1173 18.96 32.392C18.7253 31.6667 18.4907 30.888 18.256 30.056C18.0427 29.224 17.8507 28.4347 17.68 27.688C17.4453 27.7947 17.1253 27.912 16.72 28.04C16.3147 28.1467 15.8987 28.2533 15.472 28.36C14.9813 28.4667 14.4693 28.584 13.936 28.712C13.744 29.6293 13.5947 30.4187 13.488 31.08C13.4027 31.72 13.3173 32.2533 13.232 32.68C13.168 33.0853 13.072 33.384 12.944 33.576C12.8373 33.7893 12.656 33.896 12.4 33.896C12.2293 33.896 12.08 33.8 11.952 33.608C11.824 33.416 11.76 33.128 11.76 32.744C11.76 32.552 11.8133 32.104 11.92 31.4C12.0267 30.696 12.144 29.9173 12.272 29.064C12.4 28.1893 12.528 27.3253 12.656 26.472C12.784 25.6187 12.8693 24.9467 12.912 24.456C12.9333 24.2 12.9973 23.784 13.104 23.208C13.232 22.632 13.36 22.0453 13.488 21.448C13.616 20.8293 13.744 20.2747 13.872 19.784C14 19.2933 14.0853 19.016 14.128 18.952C14.4693 18.1627 14.6827 17.352 14.768 16.52C14.8747 15.688 14.9493 14.9307 14.992 14.248C15.056 13.544 15.152 12.9787 15.28 12.552C15.408 12.104 15.6747 11.88 16.08 11.88C16.1867 11.88 16.2933 11.9653 16.4 12.136C16.528 12.3067 16.6453 12.5093 16.752 12.744C16.8587 12.9787 16.944 13.2133 17.008 13.448C17.072 13.6613 17.1147 13.832 17.136 13.96C17.1573 14.088 17.1787 14.344 17.2 14.728C17.2427 15.112 17.2747 15.5387 17.296 16.008C17.3387 16.456 17.3707 16.904 17.392 17.352C17.4347 17.7787 17.4667 18.1093 17.488 18.344C17.552 19.048 17.648 19.8373 17.776 20.712C17.9253 21.5867 18.0747 22.408 18.224 23.176C18.3733 23.944 18.512 24.5947 18.64 25.128C18.768 25.64 18.864 25.896 18.928 25.896C19.0133 25.896 19.12 25.8747 19.248 25.832C19.3973 25.7893 19.536 25.768 19.664 25.768C19.8347 25.768 19.92 25.8533 19.92 26.024C19.92 26.1947 19.8773 26.3333 19.792 26.44C19.7067 26.5467 19.6107 26.6427 19.504 26.728C19.4187 26.8133 19.3333 26.888 19.248 26.952C19.184 27.016 19.152 27.0907 19.152 27.176C19.152 27.3467 19.248 27.784 19.44 28.488L19.952 30.376C19.9947 30.5467 20.0907 30.8347 20.24 31.24C20.3893 31.6453 20.5387 32.072 20.688 32.52C20.8587 32.9467 21.008 33.3413 21.136 33.704C21.264 34.088 21.328 34.3227 21.328 34.408ZM14.224 27.08C14.352 27.08 14.5867 27.048 14.928 26.984C15.2693 26.8987 15.6213 26.8027 15.984 26.696C16.3467 26.5893 16.6667 26.4827 16.944 26.376C17.2213 26.2693 17.36 26.184 17.36 26.12C17.36 26.056 17.3173 25.896 17.232 25.64C17.168 25.3627 17.0827 25.0213 16.976 24.616C16.8907 24.1893 16.7947 23.7093 16.688 23.176C16.5813 22.6427 16.4853 22.0773 16.4 21.48C16.3573 21.096 16.304 20.5733 16.24 19.912C16.176 19.2507 16.112 18.6 16.048 17.96C15.984 17.2987 15.9307 16.7333 15.888 16.264C15.8453 15.7947 15.824 15.56 15.824 15.56C15.824 15.56 15.792 15.72 15.728 16.04C15.664 16.3387 15.5893 16.68 15.504 17.064C15.44 17.4267 15.376 17.7787 15.312 18.12C15.2693 18.44 15.248 18.6213 15.248 18.664V19.56C15.248 19.6027 15.216 19.7947 15.152 20.136C15.1093 20.456 15.0453 20.872 14.96 21.384C14.8747 21.8747 14.7787 22.4187 14.672 23.016C14.5867 23.592 14.5013 24.1467 14.416 24.68C14.3307 25.2133 14.256 25.6933 14.192 26.12C14.1493 26.5253 14.128 26.8027 14.128 26.952C14.128 27.0373 14.16 27.08 14.224 27.08ZM34.552 23.752C34.552 24.3067 34.392 24.84 34.072 25.352C33.7733 25.864 33.4 26.344 32.952 26.792C32.504 27.2187 32.0133 27.624 31.48 28.008C30.9467 28.3707 30.456 28.6907 30.008 28.968C29.5813 29.2667 29.2293 29.512 28.952 29.704C28.6747 29.896 28.536 30.0453 28.536 30.152C28.536 30.4293 28.568 30.824 28.632 31.336C28.696 31.8267 28.7707 32.3707 28.856 32.968C28.9627 33.544 29.0587 34.1413 29.144 34.76C29.2507 35.3787 29.3253 35.944 29.368 36.456C29.368 36.4773 29.3787 36.5733 29.4 36.744C29.4427 36.9147 29.4853 37.1067 29.528 37.32C29.592 37.5333 29.6347 37.7253 29.656 37.896C29.6987 38.088 29.72 38.2053 29.72 38.248C29.72 38.3973 29.7093 38.5573 29.688 38.728C29.688 38.92 29.656 39.0907 29.592 39.24C29.5493 39.4107 29.4747 39.5493 29.368 39.656C29.2613 39.7627 29.1227 39.816 28.952 39.816C28.7173 39.816 28.5467 39.7093 28.44 39.496C28.3333 39.304 28.28 39.112 28.28 38.92C28.28 38.8773 28.28 38.8347 28.28 38.792C28.3013 38.7493 28.312 38.696 28.312 38.632C28.312 38.3973 28.2267 37.768 28.056 36.744C27.8853 35.72 27.6933 34.4933 27.48 33.064C27.2667 31.656 27.0747 30.1413 26.904 28.52C26.7333 26.8773 26.648 25.3307 26.648 23.88C26.648 23.7733 26.6587 23.656 26.68 23.528C26.7013 23.3787 26.712 23.2507 26.712 23.144C26.4987 23.1653 26.1787 23.2613 25.752 23.432C25.3467 23.6027 24.9413 23.816 24.536 24.072C24.1307 24.3067 23.768 24.5627 23.448 24.84C23.1493 25.096 23 25.3307 23 25.544H22.776C22.712 25.544 22.6373 25.5013 22.552 25.416C22.4453 25.3307 22.36 25.2347 22.296 25.128C22.2107 25.0213 22.136 24.9147 22.072 24.808C22.008 24.7013 21.976 24.6267 21.976 24.584C21.976 24.136 22.2427 23.72 22.776 23.336C23.3093 22.9307 23.9707 22.5787 24.76 22.28C25.5707 21.96 26.456 21.7147 27.416 21.544C28.376 21.352 29.2827 21.256 30.136 21.256C30.968 21.256 31.6613 21.352 32.216 21.544C32.792 21.736 33.2507 21.9707 33.592 22.248C33.9333 22.504 34.1787 22.7707 34.328 23.048C34.4773 23.3253 34.552 23.56 34.552 23.752ZM32.984 23.656C32.984 23.4427 32.7173 23.2293 32.184 23.016C31.6507 22.7813 31.0213 22.664 30.296 22.664C29.656 22.664 29.1867 22.6853 28.888 22.728C28.5893 22.7707 28.3867 22.8133 28.28 22.856C28.2373 23.1973 28.2053 23.6027 28.184 24.072C28.1627 24.5413 28.152 25.0213 28.152 25.512C28.152 26.024 28.1627 26.5253 28.184 27.016C28.2267 27.4853 28.2693 27.88 28.312 28.2C28.6107 28.008 29.016 27.752 29.528 27.432C30.0613 27.0907 30.584 26.7173 31.096 26.312C31.608 25.8853 32.0453 25.448 32.408 25C32.792 24.5307 32.984 24.0827 32.984 23.656ZM46.6145 23.752C46.6145 24.3067 46.4545 24.84 46.1345 25.352C45.8358 25.864 45.4625 26.344 45.0145 26.792C44.5665 27.2187 44.0758 27.624 43.5425 28.008C43.0092 28.3707 42.5185 28.6907 42.0705 28.968C41.6438 29.2667 41.2918 29.512 41.0145 29.704C40.7372 29.896 40.5985 30.0453 40.5985 30.152C40.5985 30.4293 40.6305 30.824 40.6945 31.336C40.7585 31.8267 40.8332 32.3707 40.9185 32.968C41.0252 33.544 41.1212 34.1413 41.2065 34.76C41.3132 35.3787 41.3878 35.944 41.4305 36.456C41.4305 36.4773 41.4412 36.5733 41.4625 36.744C41.5052 36.9147 41.5478 37.1067 41.5905 37.32C41.6545 37.5333 41.6972 37.7253 41.7185 37.896C41.7612 38.088 41.7825 38.2053 41.7825 38.248C41.7825 38.3973 41.7718 38.5573 41.7505 38.728C41.7505 38.92 41.7185 39.0907 41.6545 39.24C41.6118 39.4107 41.5372 39.5493 41.4305 39.656C41.3238 39.7627 41.1852 39.816 41.0145 39.816C40.7798 39.816 40.6092 39.7093 40.5025 39.496C40.3958 39.304 40.3425 39.112 40.3425 38.92C40.3425 38.8773 40.3425 38.8347 40.3425 38.792C40.3638 38.7493 40.3745 38.696 40.3745 38.632C40.3745 38.3973 40.2892 37.768 40.1185 36.744C39.9478 35.72 39.7558 34.4933 39.5425 33.064C39.3292 31.656 39.1372 30.1413 38.9665 28.52C38.7958 26.8773 38.7105 25.3307 38.7105 23.88C38.7105 23.7733 38.7212 23.656 38.7425 23.528C38.7638 23.3787 38.7745 23.2507 38.7745 23.144C38.5612 23.1653 38.2412 23.2613 37.8145 23.432C37.4092 23.6027 37.0038 23.816 36.5985 24.072C36.1932 24.3067 35.8305 24.5627 35.5105 24.84C35.2118 25.096 35.0625 25.3307 35.0625 25.544H34.8385C34.7745 25.544 34.6998 25.5013 34.6145 25.416C34.5078 25.3307 34.4225 25.2347 34.3585 25.128C34.2732 25.0213 34.1985 24.9147 34.1345 24.808C34.0705 24.7013 34.0385 24.6267 34.0385 24.584C34.0385 24.136 34.3052 23.72 34.8385 23.336C35.3718 22.9307 36.0332 22.5787 36.8225 22.28C37.6332 21.96 38.5185 21.7147 39.4785 21.544C40.4385 21.352 41.3452 21.256 42.1985 21.256C43.0305 21.256 43.7238 21.352 44.2785 21.544C44.8545 21.736 45.3132 21.9707 45.6545 22.248C45.9958 22.504 46.2412 22.7707 46.3905 23.048C46.5398 23.3253 46.6145 23.56 46.6145 23.752ZM45.0465 23.656C45.0465 23.4427 44.7798 23.2293 44.2465 23.016C43.7132 22.7813 43.0838 22.664 42.3585 22.664C41.7185 22.664 41.2492 22.6853 40.9505 22.728C40.6518 22.7707 40.4492 22.8133 40.3425 22.856C40.2998 23.1973 40.2678 23.6027 40.2465 24.072C40.2252 24.5413 40.2145 25.0213 40.2145 25.512C40.2145 26.024 40.2252 26.5253 40.2465 27.016C40.2892 27.4853 40.3318 27.88 40.3745 28.2C40.6732 28.008 41.0785 27.752 41.5905 27.432C42.1238 27.0907 42.6465 26.7173 43.1585 26.312C43.6705 25.8853 44.1078 25.448 44.4705 25C44.8545 24.5307 45.0465 24.0827 45.0465 23.656ZM62.389 25.672C62.389 25.9707 62.3037 26.28 62.133 26.6C61.9837 26.92 61.7917 27.24 61.557 27.56C61.3223 27.88 61.0663 28.1893 60.789 28.488C60.5117 28.7653 60.2557 29.0107 60.021 29.224C59.445 29.736 58.8477 30.2267 58.229 30.696C57.6317 31.144 57.0023 31.5493 56.341 31.912C55.701 32.2747 55.029 32.5627 54.325 32.776C53.621 32.9893 52.885 33.096 52.117 33.096C49.7917 33.096 48.629 31.9013 48.629 29.512C48.629 29.2773 48.725 28.8187 48.917 28.136C49.109 27.4533 49.3543 26.6747 49.653 25.8C49.9517 24.9253 50.3037 24.008 50.709 23.048C51.1143 22.088 51.5303 21.2133 51.957 20.424C52.3837 19.6133 52.7997 18.952 53.205 18.44C53.6317 17.928 54.0263 17.672 54.389 17.672C54.6237 17.672 54.7943 17.7467 54.901 17.896C55.029 18.0453 55.093 18.2053 55.093 18.376C55.0717 18.504 54.9223 18.7813 54.645 19.208C54.3677 19.6133 54.0797 20.0293 53.781 20.456C53.7383 20.52 53.6637 20.6267 53.557 20.776C53.4503 20.9253 53.3437 21.0747 53.237 21.224C53.109 21.3947 52.981 21.576 52.853 21.768C52.7677 21.9173 52.5757 22.3013 52.277 22.92C51.9997 23.5173 51.701 24.2213 51.381 25.032C51.061 25.8213 50.773 26.6533 50.517 27.528C50.261 28.3813 50.133 29.128 50.133 29.768C50.133 30.1307 50.2077 30.4187 50.357 30.632C50.5277 30.8453 50.7197 31.0053 50.933 31.112C51.1677 31.2187 51.4023 31.2933 51.637 31.336C51.893 31.3573 52.117 31.368 52.309 31.368C53.0983 31.368 53.9303 31.1973 54.805 30.856C55.701 30.4933 56.5543 30.024 57.365 29.448C58.1757 28.872 58.9223 28.2107 59.605 27.464C60.2877 26.696 60.821 25.9067 61.205 25.096C61.2903 24.9467 61.3757 24.8507 61.461 24.808C61.5677 24.7653 61.6637 24.744 61.749 24.744C61.9197 24.744 62.069 24.8613 62.197 25.096C62.325 25.3307 62.389 25.5227 62.389 25.672ZM80.3238 26.344C80.3238 26.728 80.1424 27.208 79.7798 27.784C79.4384 28.3387 78.9691 28.8827 78.3718 29.416C77.7744 29.9493 77.0811 30.408 76.2918 30.792C75.5024 31.1547 74.6811 31.336 73.8278 31.336C73.4438 31.336 73.0384 31.272 72.6118 31.144C72.1851 31.016 71.7691 30.8347 71.3638 30.6C70.9584 30.344 70.5958 30.0453 70.2758 29.704C69.9558 29.3413 69.7211 28.936 69.5718 28.488C69.4438 28.616 69.2838 28.8293 69.0918 29.128C68.9211 29.4267 68.7291 29.736 68.5158 30.056C68.3024 30.3547 68.0678 30.6213 67.8118 30.856C67.5558 31.0693 67.2891 31.176 67.0118 31.176C66.7344 31.176 66.4998 31.0373 66.3078 30.76C66.1371 30.4613 65.9984 30.1413 65.8918 29.8C65.7851 29.4373 65.7104 29.096 65.6678 28.776C65.6251 28.456 65.6038 28.2747 65.6038 28.232C65.6038 27.976 65.6784 27.496 65.8278 26.792C65.9771 26.0667 66.2011 25.32 66.4998 24.552C66.7984 23.784 67.1718 23.1013 67.6198 22.504C68.0891 21.9067 68.6331 21.608 69.2518 21.608C69.4864 21.608 69.6358 21.7147 69.6998 21.928C69.7851 22.12 69.8278 22.312 69.8278 22.504V23.464C69.9344 23.5493 70.0411 23.6133 70.1478 23.656C70.2758 23.6773 70.3824 23.72 70.4678 23.784C70.5744 23.8267 70.6491 23.9013 70.6918 24.008C70.7558 24.1147 70.7878 24.2853 70.7878 24.52C70.7878 24.6693 70.7771 24.808 70.7558 24.936C70.7344 25.0427 70.7238 25.1493 70.7238 25.256C70.7238 25.8107 70.7664 26.3547 70.8518 26.888C70.9371 27.4213 71.1078 27.9013 71.3638 28.328C71.6198 28.7333 71.9718 29.0747 72.4198 29.352C72.8678 29.608 73.4651 29.736 74.2118 29.736C75.1504 29.736 75.9398 29.544 76.5798 29.16C77.2411 28.7547 77.7851 28.3173 78.2118 27.848C78.6598 27.3573 79.0118 26.92 79.2678 26.536C79.5238 26.1307 79.7371 25.928 79.9078 25.928C80.1851 25.928 80.3238 26.0667 80.3238 26.344ZM69.0918 24.936C69.0918 24.8507 69.0704 24.776 69.0278 24.712C68.9851 24.6267 68.9638 24.552 68.9638 24.488C68.9638 24.4027 68.9851 24.328 69.0278 24.264C69.0704 24.2 69.0918 24.1147 69.0918 24.008C69.0918 23.944 69.0704 23.9013 69.0278 23.88C68.9851 23.8373 68.9638 23.7947 68.9638 23.752C68.7718 23.7947 68.5691 23.976 68.3558 24.296C68.1638 24.616 67.9718 24.9893 67.7798 25.416C67.6091 25.8427 67.4704 26.28 67.3638 26.728C67.2571 27.1547 67.2038 27.5067 67.2038 27.784C67.2038 27.9333 67.2464 28.1787 67.3318 28.52C67.4171 28.8613 67.5131 29.0853 67.6198 29.192C67.9824 28.4453 68.3131 27.72 68.6118 27.016C68.9318 26.312 69.0918 25.6187 69.0918 24.936ZM89.1975 18.536C88.9202 18.856 88.5255 19.176 88.0135 19.496C87.5015 19.7947 86.9895 20.072 86.4775 20.328C85.9655 20.584 85.5175 20.808 85.1335 21C84.7495 21.1707 84.5575 21.288 84.5575 21.352C84.5575 21.416 84.6002 21.608 84.6855 21.928C84.7708 22.248 84.8668 22.632 84.9735 23.08C85.1015 23.5067 85.2295 23.9547 85.3575 24.424C85.4855 24.8933 85.5922 25.3093 85.6775 25.672C85.7202 25.8853 85.7735 26.1627 85.8375 26.504C85.9015 26.8453 85.9548 27.1867 85.9975 27.528C86.0615 27.8693 86.1148 28.1787 86.1575 28.456C86.2002 28.712 86.2215 28.8507 86.2215 28.872C86.2215 29.192 86.1682 29.5227 86.0615 29.864C85.9548 30.2053 85.7842 30.376 85.5495 30.376C85.4215 30.376 85.3042 30.3227 85.1975 30.216C85.0908 30.1093 84.9948 29.992 84.9095 29.864C84.8242 29.7147 84.7602 29.576 84.7175 29.448C84.6748 29.32 84.6535 29.224 84.6535 29.16C84.6535 29.1173 84.6535 29.0533 84.6535 28.968C84.6748 28.8827 84.6855 28.7867 84.6855 28.68C84.6855 28.2747 84.6215 27.688 84.4935 26.92C84.4508 26.6853 84.3655 26.3227 84.2375 25.832C84.1095 25.3413 83.9815 24.84 83.8535 24.328C83.7042 23.7307 83.5335 23.08 83.3415 22.376C83.2562 22.0773 83.2028 21.928 83.1815 21.928C83.0322 21.928 82.7762 22.024 82.4135 22.216C82.0722 22.3867 81.6775 22.6107 81.2295 22.888C80.7815 23.144 80.3122 23.432 79.8215 23.752C79.3308 24.0507 78.8722 24.3387 78.4455 24.616C78.0188 24.872 77.6562 25.096 77.3575 25.288C77.0375 25.4587 76.8455 25.544 76.7815 25.544C76.5042 25.544 76.2802 25.448 76.1095 25.256C75.9388 25.064 75.8535 24.8507 75.8535 24.616C75.8535 24.488 76.0348 24.3067 76.3975 24.072C76.7388 23.816 77.1762 23.5387 77.7095 23.24C78.2215 22.9413 78.7868 22.632 79.4055 22.312C80.0028 21.992 80.5575 21.704 81.0695 21.448C81.6028 21.192 82.0402 20.9787 82.3815 20.808C82.7442 20.6373 82.9255 20.552 82.9255 20.552C82.7335 19.5707 82.5735 18.696 82.4455 17.928C82.3388 17.2667 82.2322 16.6587 82.1255 16.104C82.0402 15.5493 81.9975 15.2507 81.9975 15.208C81.9975 14.9307 82.0508 14.728 82.1575 14.6C82.2855 14.4507 82.4242 14.376 82.5735 14.376C82.8082 14.376 82.9575 14.536 83.0215 14.856C83.2562 16.008 83.4695 17.032 83.6615 17.928C83.8748 18.824 84.0775 19.5493 84.2695 20.104C84.4615 20.0613 84.7922 19.944 85.2615 19.752C85.7308 19.5387 86.2215 19.3147 86.7335 19.08C87.2455 18.8453 87.7042 18.6427 88.1095 18.472C88.5362 18.28 88.7815 18.184 88.8455 18.184C88.9735 18.184 89.0482 18.2267 89.0695 18.312C89.1122 18.3973 89.1548 18.472 89.1975 18.536Z" fill="black"/>
<path d="M92.9843 30.952C92.9843 31.08 92.9203 31.208 92.7923 31.336C92.6643 31.4427 92.5149 31.5493 92.3443 31.656C92.1949 31.7413 92.0456 31.816 91.8963 31.88C91.7469 31.9227 91.6616 31.944 91.6403 31.944C91.4483 31.944 91.2989 31.9013 91.1923 31.816C91.1069 31.7093 91.0323 31.6027 90.9683 31.496C90.9256 31.368 90.8936 31.2507 90.8723 31.144C90.8723 31.0373 90.8723 30.9627 90.8723 30.92C90.8723 30.8347 90.8936 30.728 90.9363 30.6C90.9789 30.4507 91.0429 30.312 91.1283 30.184C91.2136 30.056 91.3096 29.9493 91.4163 29.864C91.5443 29.7573 91.6829 29.704 91.8323 29.704C92.1096 29.704 92.3656 29.8213 92.6003 30.056C92.8563 30.2907 92.9843 30.5893 92.9843 30.952Z" fill="#595BD4"/>
</svg>
