<svg width="675" height="114" viewBox="0 0 675 114" fill="none" xmlns="http://www.w3.org/2000/svg">
<path fill-rule="evenodd" clip-rule="evenodd" d="M55.3983 37.6585C56.5028 34.5474 58.0919 31.9132 61.3686 30.7899C65.4971 30.2585 68.8862 31.1429 72.254 32.8664C73.6842 33.5983 75.2729 33.9954 76.8653 34.3935C78.2373 34.7364 79.6121 35.0801 80.8906 35.6391C85.2232 37.5335 89.5062 39.6243 93.5745 42.0453C96.2184 43.6186 96.8059 46.7476 97.3247 49.511C97.3989 49.9061 97.4717 50.2938 97.5488 50.6683C97.918 52.4595 97.2447 55.4108 95.2189 57.1864C94.5335 57.7869 93.9568 58.5137 93.3789 59.2421L93.3774 59.2437L93.3758 59.2453L93.3742 59.247C92.9518 59.779 92.5288 60.3119 92.0626 60.7973C90.6889 62.2274 88.8791 62.7788 86.9852 62.9096C85.5007 63.0121 84.0181 63.2952 82.535 63.5783C78.8738 64.2772 75.2099 64.9766 71.5081 62.962C70.2575 62.2814 68.7233 61.6693 67.3639 61.7554C61.7187 62.1129 59.1758 57.8796 57.2701 53.9284C54.865 48.9419 53.3587 43.4031 55.3983 37.6585ZM76.4901 51.8917C75.5948 52.2824 74.3539 52.6892 74.3154 52.5931C74.2348 52.3921 74.1463 52.186 74.0566 51.9769C73.6503 51.0311 73.2177 50.0235 73.3722 49.1433C74.0248 45.428 74.9398 41.7552 75.9061 38.108C76.0249 37.6595 76.4792 37.3037 76.9335 36.948C77.1432 36.7837 77.353 36.6194 77.5297 36.4461C77.712 36.6598 77.9426 36.8725 78.1731 37.0851C78.6716 37.5448 79.1701 38.0045 79.1807 38.4757C79.1931 39.0322 79.2149 39.5915 79.2367 40.1519L79.2374 40.1685L79.2375 40.1708L79.2378 40.1779L79.2378 40.1803L79.2381 40.1875L79.2382 40.1898L79.2383 40.1922C79.3949 44.2083 79.5537 48.282 76.4901 51.8917Z" fill="#FF9102"/>
<path d="M76.4869 51.8938C75.5916 52.2845 74.3507 52.6913 74.3122 52.5952C73.8671 51.4846 73.1803 50.2202 73.369 49.1454C74.0216 45.43 74.9366 41.7573 75.9029 38.1101C76.0766 37.4545 76.967 36.9971 77.5265 36.4481C78.1029 37.1241 79.1619 37.7886 79.1775 38.4778C79.2805 43.0367 79.9883 47.7683 76.4869 51.8938Z" fill="#11274D"/>
<path fill-rule="evenodd" clip-rule="evenodd" d="M187.262 58.4176C186.24 55.3019 185.993 52.1543 187.457 49.0694C190.804 39.3483 197.608 34.8584 206.095 31.9802C210.414 30.5155 214.665 30.2364 219.027 30.4022C223.707 30.5802 227.881 32.0792 231.407 35.5477C233.847 37.9477 234.698 41.0515 235.044 43.9924C236.655 57.6609 229.865 66.8874 217.784 71.7364C211.679 74.1865 204.718 74.3491 198.385 70.7196C197.414 70.163 196.335 69.7312 195.264 69.3022C193.44 68.5722 191.637 67.8503 190.418 66.5357C189.083 65.096 188.501 62.9059 187.925 60.7407C187.715 59.9504 187.506 59.1635 187.262 58.4176ZM214.718 46.8939C214.707 47.6523 214.715 48.3925 214.723 49.1168C214.752 51.7605 214.779 54.1936 213.862 56.5334C213.71 56.922 213.536 57.3017 213.362 57.6815C213.282 57.8561 213.202 58.0307 213.124 58.2062C212.95 58.0857 212.747 57.9772 212.545 57.8687C212.103 57.6321 211.661 57.3956 211.514 57.034C210.762 55.1782 210.145 53.2529 209.639 51.3098C209.37 50.2786 209.507 49.2808 211.065 49.4568C211.292 49.4824 211.55 49.224 211.809 48.9656C211.927 48.8466 212.046 48.7276 212.162 48.6363L211.824 48.3679C211.571 48.1671 211.316 47.9657 211.064 47.7639C208.879 46.0175 209.307 41.8133 211.867 40.8665C212.524 40.6233 213.383 40.4861 214.043 41.9533C214.534 43.0454 214.57 44.0556 214.612 45.2014C214.631 45.7296 214.652 46.2867 214.718 46.8939Z" fill="#FF9102"/>
<path d="M214.709 46.8902C214.658 50.4164 215.021 53.5488 213.853 56.5297C213.631 57.097 213.363 57.6454 213.115 58.2025C212.561 57.8191 211.719 57.5576 211.505 57.0303C210.753 55.1745 210.136 53.2492 209.63 51.3062C209.361 50.2749 209.498 49.2771 211.056 49.4531C211.388 49.4906 211.786 48.922 212.153 48.6326C211.787 48.3419 211.42 48.0521 211.055 47.7602C208.87 46.0138 209.298 41.8096 211.858 40.8628C212.515 40.6196 213.374 40.4825 214.034 41.9496C214.751 43.5453 214.499 44.9661 214.709 46.8902Z" fill="#11274D"/>
<path d="M135.032 19.2271C130.531 18.8608 125.845 17.6243 121.086 14.6879C109.684 7.6531 80.4795 2.90861 71.7265 2.5891C47.0702 1.68754 22.7672 1.65457 0.314209 4.3407L0.458778 21.5069C6.7585 24.1324 8.54765 28.6738 9.23392 34.1026C12.3968 59.1245 17.3078 80.4845 27.5208 89.5644C34.7737 96.0134 43.9697 101.737 61.5472 101.823C80.2716 101.914 100.325 97.3637 110.475 86.1705C119.385 76.3444 128.854 61.0731 132.68 44.1433C134.121 37.7644 138.65 35.0853 143.687 35.2683C148.724 35.4513 153.055 38.4523 154.049 44.9197C156.688 62.0844 165.071 78.0043 173.275 88.4522C182.62 100.353 202.306 106.348 220.99 107.616C238.529 108.806 248.1 103.764 255.783 97.8577C266.601 89.5411 272.985 68.5923 277.881 43.8632C278.944 38.4979 281.044 34.0978 287.511 31.9362L288.849 14.8238C266.638 10.5149 242.394 8.78413 217.739 7.89407C208.986 7.57748 179.525 10.1905 167.662 16.3801C162.711 18.9637 157.951 19.857 153.436 19.8958C147.298 19.9485 141.152 19.7252 135.032 19.2271ZM63.445 10.9358C68.892 11.1237 74.4033 11.4593 79.6232 11.5684C84.1404 11.6628 115.276 11.9221 119.637 31.2132C123.793 49.6014 115.88 72.4995 100.296 85.0388C89.4366 93.7765 47.6061 102.167 32.0188 82.0205C21.3352 68.2117 19.3999 55.965 18.7989 39.0637C18.4184 28.3568 21.4759 17.5571 38.6702 12.633C45.5022 10.6765 54.3665 10.6207 63.445 10.9344L63.445 10.9358ZM206.404 16.1299C207.696 16.1697 208.673 16.2484 209.237 16.2775C214.451 16.5476 219.972 16.6128 225.418 16.8207C234.496 17.1667 243.334 17.8657 250.012 20.313C266.821 26.4725 269.12 37.4669 267.995 48.119C266.22 64.934 263.438 77.0093 251.821 90.0078C234.871 108.972 193.73 97.5672 183.506 88.0635C168.833 74.4236 162.533 51.0091 167.958 32.9703C172.938 16.41 197.355 15.8498 206.404 16.1312L206.404 16.1299ZM7.30687 12.9288L19.9976 13.3898L19.8901 16.4776L7.19935 16.0165L7.30687 12.9288ZM268.59 22.4218L281.28 22.8829L281.173 25.9706L268.482 25.5095L268.59 22.4218Z" fill="#1B4DE5"/>
<path d="M383.02 91.72C383.107 92.0667 383.15 92.37 383.15 92.63C383.15 92.9766 383.15 93.2367 383.15 93.41C383.15 94.2767 382.933 94.8833 382.5 95.23C382.153 95.5767 381.417 95.75 380.29 95.75C379.25 95.75 378.557 95.5767 378.21 95.23C377.69 94.71 376.997 93.3666 376.13 91.2C375.263 89.0333 374.353 86.4767 373.4 83.53C372.447 80.5833 371.493 77.42 370.54 74.04C369.673 70.66 368.893 67.4533 368.2 64.42C367.247 64.8533 365.947 65.33 364.3 65.85C362.653 66.2833 360.963 66.7167 359.23 67.15C357.237 67.5833 355.157 68.06 352.99 68.58C352.21 72.3067 351.603 75.5133 351.17 78.2C350.823 80.8 350.477 82.9666 350.13 84.7C349.87 86.3466 349.48 87.56 348.96 88.34C348.527 89.2067 347.79 89.64 346.75 89.64C346.057 89.64 345.45 89.25 344.93 88.47C344.41 87.69 344.15 86.52 344.15 84.96C344.15 84.18 344.367 82.36 344.8 79.5C345.233 76.64 345.71 73.4767 346.23 70.01C346.75 66.4567 347.27 62.9467 347.79 59.48C348.31 56.0133 348.657 53.2833 348.83 51.29C348.917 50.25 349.177 48.56 349.61 46.22C350.13 43.88 350.65 41.4966 351.17 39.07C351.69 36.5566 352.21 34.3033 352.73 32.31C353.25 30.3166 353.597 29.19 353.77 28.93C355.157 25.7233 356.023 22.43 356.37 19.05C356.803 15.67 357.107 12.5933 357.28 9.81998C357.54 6.95998 357.93 4.66331 358.45 2.92998C358.97 1.10998 360.053 0.199982 361.7 0.199982C362.133 0.199982 362.567 0.546649 363 1.23998C363.52 1.93331 363.997 2.75665 364.43 3.70998C364.863 4.66331 365.21 5.61665 365.47 6.56998C365.73 7.43665 365.903 8.12998 365.99 8.64998C366.077 9.16998 366.163 10.21 366.25 11.77C366.423 13.33 366.553 15.0633 366.64 16.97C366.813 18.79 366.943 20.61 367.03 22.43C367.203 24.1633 367.333 25.5066 367.42 26.46C367.68 29.32 368.07 32.5267 368.59 36.08C369.197 39.6333 369.803 42.97 370.41 46.09C371.017 49.21 371.58 51.8533 372.1 54.02C372.62 56.1 373.01 57.14 373.27 57.14C373.617 57.14 374.05 57.0533 374.57 56.88C375.177 56.7067 375.74 56.62 376.26 56.62C376.953 56.62 377.3 56.9667 377.3 57.66C377.3 58.3533 377.127 58.9167 376.78 59.35C376.433 59.7833 376.043 60.1733 375.61 60.52C375.263 60.8667 374.917 61.17 374.57 61.43C374.31 61.69 374.18 61.9933 374.18 62.34C374.18 63.0333 374.57 64.81 375.35 67.67L377.43 75.34C377.603 76.0333 377.993 77.2033 378.6 78.85C379.207 80.4966 379.813 82.23 380.42 84.05C381.113 85.7833 381.72 87.3867 382.24 88.86C382.76 90.42 383.02 91.3733 383.02 91.72ZM354.16 61.95C354.68 61.95 355.633 61.82 357.02 61.56C358.407 61.2133 359.837 60.8233 361.31 60.39C362.783 59.9567 364.083 59.5233 365.21 59.09C366.337 58.6566 366.9 58.31 366.9 58.05C366.9 57.79 366.727 57.14 366.38 56.1C366.12 54.9733 365.773 53.5867 365.34 51.94C364.993 50.2067 364.603 48.2567 364.17 46.09C363.737 43.9233 363.347 41.6266 363 39.2C362.827 37.64 362.61 35.5166 362.35 32.83C362.09 30.1433 361.83 27.5 361.57 24.9C361.31 22.2133 361.093 19.9166 360.92 18.01C360.747 16.1033 360.66 15.15 360.66 15.15C360.66 15.15 360.53 15.8 360.27 17.1C360.01 18.3133 359.707 19.7 359.36 21.26C359.1 22.7333 358.84 24.1633 358.58 25.55C358.407 26.85 358.32 27.5866 358.32 27.76V31.4C358.32 31.5733 358.19 32.3533 357.93 33.74C357.757 35.04 357.497 36.73 357.15 38.81C356.803 40.8033 356.413 43.0133 355.98 45.44C355.633 47.78 355.287 50.0333 354.94 52.2C354.593 54.3666 354.29 56.3166 354.03 58.05C353.857 59.6967 353.77 60.8233 353.77 61.43C353.77 61.7767 353.9 61.95 354.16 61.95Z" fill="black"/>
<path d="M436.742 48.43C436.742 50.6833 436.092 52.85 434.792 54.93C433.579 57.01 432.062 58.96 430.242 60.78C428.422 62.5133 426.429 64.16 424.262 65.72C422.096 67.1933 420.102 68.4933 418.282 69.62C416.549 70.8333 415.119 71.83 413.992 72.61C412.866 73.39 412.302 73.9967 412.302 74.43C412.302 75.5567 412.432 77.16 412.692 79.24C412.952 81.2333 413.256 83.4433 413.602 85.87C414.036 88.21 414.426 90.6367 414.772 93.15C415.206 95.6633 415.509 97.96 415.682 100.04C415.682 100.127 415.726 100.517 415.812 101.21C415.986 101.903 416.159 102.683 416.332 103.55C416.592 104.417 416.766 105.197 416.852 105.89C417.026 106.67 417.112 107.147 417.112 107.32C417.112 107.927 417.069 108.577 416.982 109.27C416.982 110.05 416.852 110.743 416.592 111.35C416.419 112.043 416.116 112.607 415.682 113.04C415.249 113.473 414.686 113.69 413.992 113.69C413.039 113.69 412.346 113.257 411.912 112.39C411.479 111.61 411.262 110.83 411.262 110.05C411.262 109.877 411.262 109.703 411.262 109.53C411.349 109.357 411.392 109.14 411.392 108.88C411.392 107.927 411.046 105.37 410.352 101.21C409.659 97.05 408.879 92.0667 408.012 86.26C407.146 80.54 406.366 74.3867 405.672 67.8C404.979 61.1267 404.632 54.8433 404.632 48.95C404.632 48.5166 404.676 48.04 404.762 47.52C404.849 46.9133 404.892 46.3933 404.892 45.96C404.026 46.0466 402.726 46.4366 400.992 47.13C399.346 47.8233 397.699 48.69 396.052 49.73C394.406 50.6833 392.932 51.7233 391.632 52.85C390.419 53.89 389.812 54.8433 389.812 55.71H388.902C388.642 55.71 388.339 55.5367 387.992 55.19C387.559 54.8433 387.212 54.4533 386.952 54.02C386.606 53.5867 386.302 53.1533 386.042 52.72C385.782 52.2866 385.652 51.9833 385.652 51.81C385.652 49.99 386.736 48.3 388.902 46.74C391.069 45.0933 393.756 43.6633 396.962 42.45C400.256 41.15 403.852 40.1533 407.752 39.46C411.652 38.68 415.336 38.29 418.802 38.29C422.182 38.29 424.999 38.68 427.252 39.46C429.592 40.24 431.456 41.1933 432.842 42.32C434.229 43.36 435.226 44.4433 435.832 45.57C436.439 46.6967 436.742 47.65 436.742 48.43ZM430.372 48.04C430.372 47.1733 429.289 46.3066 427.122 45.44C424.956 44.4866 422.399 44.01 419.452 44.01C416.852 44.01 414.946 44.0967 413.732 44.27C412.519 44.4433 411.696 44.6167 411.262 44.79C411.089 46.1766 410.959 47.8233 410.872 49.73C410.786 51.6367 410.742 53.5867 410.742 55.58C410.742 57.66 410.786 59.6966 410.872 61.69C411.046 63.5967 411.219 65.2 411.392 66.5C412.606 65.72 414.252 64.68 416.332 63.38C418.499 61.9933 420.622 60.4766 422.702 58.83C424.782 57.0966 426.559 55.32 428.032 53.5C429.592 51.5933 430.372 49.7733 430.372 48.04Z" fill="black"/>
<path d="M485.746 48.43C485.746 50.6833 485.096 52.85 483.796 54.93C482.583 57.01 481.066 58.96 479.246 60.78C477.426 62.5133 475.433 64.16 473.266 65.72C471.1 67.1933 469.106 68.4933 467.286 69.62C465.553 70.8333 464.123 71.83 462.996 72.61C461.87 73.39 461.306 73.9967 461.306 74.43C461.306 75.5567 461.436 77.16 461.696 79.24C461.956 81.2333 462.26 83.4433 462.606 85.87C463.04 88.21 463.43 90.6367 463.776 93.15C464.21 95.6633 464.513 97.96 464.686 100.04C464.686 100.127 464.73 100.517 464.816 101.21C464.99 101.903 465.163 102.683 465.336 103.55C465.596 104.417 465.77 105.197 465.856 105.89C466.03 106.67 466.116 107.147 466.116 107.32C466.116 107.927 466.073 108.577 465.986 109.27C465.986 110.05 465.856 110.743 465.596 111.35C465.423 112.043 465.12 112.607 464.686 113.04C464.253 113.473 463.69 113.69 462.996 113.69C462.043 113.69 461.35 113.257 460.916 112.39C460.483 111.61 460.266 110.83 460.266 110.05C460.266 109.877 460.266 109.703 460.266 109.53C460.353 109.357 460.396 109.14 460.396 108.88C460.396 107.927 460.05 105.37 459.356 101.21C458.663 97.05 457.883 92.0667 457.016 86.26C456.15 80.54 455.37 74.3867 454.676 67.8C453.983 61.1267 453.636 54.8433 453.636 48.95C453.636 48.5166 453.68 48.04 453.766 47.52C453.853 46.9133 453.896 46.3933 453.896 45.96C453.03 46.0466 451.73 46.4366 449.996 47.13C448.35 47.8233 446.703 48.69 445.056 49.73C443.41 50.6833 441.936 51.7233 440.636 52.85C439.423 53.89 438.816 54.8433 438.816 55.71H437.906C437.646 55.71 437.343 55.5367 436.996 55.19C436.563 54.8433 436.216 54.4533 435.956 54.02C435.61 53.5867 435.306 53.1533 435.046 52.72C434.786 52.2866 434.656 51.9833 434.656 51.81C434.656 49.99 435.74 48.3 437.906 46.74C440.073 45.0933 442.76 43.6633 445.966 42.45C449.26 41.15 452.856 40.1533 456.756 39.46C460.656 38.68 464.34 38.29 467.806 38.29C471.186 38.29 474.003 38.68 476.256 39.46C478.596 40.24 480.46 41.1933 481.846 42.32C483.233 43.36 484.23 44.4433 484.836 45.57C485.443 46.6967 485.746 47.65 485.746 48.43ZM479.376 48.04C479.376 47.1733 478.293 46.3066 476.126 45.44C473.96 44.4866 471.403 44.01 468.456 44.01C465.856 44.01 463.95 44.0967 462.736 44.27C461.523 44.4433 460.7 44.6167 460.266 44.79C460.093 46.1766 459.963 47.8233 459.876 49.73C459.79 51.6367 459.746 53.5867 459.746 55.58C459.746 57.66 459.79 59.6966 459.876 61.69C460.05 63.5967 460.223 65.2 460.396 66.5C461.61 65.72 463.256 64.68 465.336 63.38C467.503 61.9933 469.626 60.4766 471.706 58.83C473.786 57.0966 475.563 55.32 477.036 53.5C478.596 51.5933 479.376 49.7733 479.376 48.04Z" fill="black"/>
<path d="M549.83 56.23C549.83 57.4433 549.484 58.7 548.79 60C548.184 61.3 547.404 62.6 546.45 63.9C545.497 65.2 544.457 66.4566 543.33 67.67C542.204 68.7966 541.164 69.7933 540.21 70.66C537.87 72.74 535.444 74.7333 532.93 76.64C530.504 78.46 527.947 80.1067 525.26 81.58C522.66 83.0533 519.93 84.2233 517.07 85.09C514.21 85.9567 511.22 86.39 508.1 86.39C498.654 86.39 493.93 81.5367 493.93 71.83C493.93 70.8767 494.32 69.0133 495.1 66.24C495.88 63.4666 496.877 60.3033 498.09 56.75C499.304 53.1967 500.734 49.47 502.38 45.57C504.027 41.67 505.717 38.1167 507.45 34.91C509.184 31.6166 510.874 28.93 512.52 26.85C514.254 24.77 515.857 23.73 517.33 23.73C518.284 23.73 518.977 24.0333 519.41 24.64C519.93 25.2466 520.19 25.8966 520.19 26.59C520.104 27.11 519.497 28.2366 518.37 29.97C517.244 31.6166 516.074 33.3066 514.86 35.04C514.687 35.3 514.384 35.7333 513.95 36.34C513.517 36.9466 513.084 37.5533 512.65 38.16C512.13 38.8533 511.61 39.59 511.09 40.37C510.744 40.9767 509.964 42.5366 508.75 45.05C507.624 47.4766 506.41 50.3366 505.11 53.63C503.81 56.8366 502.64 60.2167 501.6 63.77C500.56 67.2367 500.04 70.27 500.04 72.87C500.04 74.3433 500.344 75.5133 500.95 76.38C501.644 77.2466 502.424 77.8967 503.29 78.33C504.244 78.7633 505.197 79.0666 506.15 79.24C507.19 79.3266 508.1 79.37 508.88 79.37C512.087 79.37 515.467 78.6767 519.02 77.29C522.66 75.8167 526.127 73.91 529.42 71.57C532.714 69.23 535.747 66.5433 538.52 63.51C541.294 60.39 543.46 57.1833 545.02 53.89C545.367 53.2833 545.714 52.8933 546.06 52.72C546.494 52.5466 546.884 52.46 547.23 52.46C547.924 52.46 548.53 52.9367 549.05 53.89C549.57 54.8433 549.83 55.6233 549.83 56.23Z" fill="black"/>
<path d="M622.69 58.96C622.69 60.52 621.953 62.47 620.48 64.81C619.093 67.0633 617.187 69.2733 614.76 71.44C612.333 73.6067 609.517 75.47 606.31 77.03C603.103 78.5033 599.767 79.24 596.3 79.24C594.74 79.24 593.093 78.98 591.36 78.46C589.627 77.94 587.937 77.2033 586.29 76.25C584.643 75.21 583.17 73.9967 581.87 72.61C580.57 71.1367 579.617 69.49 579.01 67.67C578.49 68.19 577.84 69.0566 577.06 70.27C576.367 71.4833 575.587 72.74 574.72 74.04C573.853 75.2533 572.9 76.3367 571.86 77.29C570.82 78.1567 569.737 78.59 568.61 78.59C567.483 78.59 566.53 78.0267 565.75 76.9C565.057 75.6867 564.493 74.3867 564.06 73C563.627 71.5267 563.323 70.14 563.15 68.84C562.977 67.54 562.89 66.8033 562.89 66.63C562.89 65.59 563.193 63.64 563.8 60.78C564.407 57.8333 565.317 54.8 566.53 51.68C567.743 48.56 569.26 45.7867 571.08 43.36C572.987 40.9333 575.197 39.72 577.71 39.72C578.663 39.72 579.27 40.1533 579.53 41.02C579.877 41.8 580.05 42.58 580.05 43.36V47.26C580.483 47.6067 580.917 47.8667 581.35 48.04C581.87 48.1266 582.303 48.3 582.65 48.56C583.083 48.7333 583.387 49.0366 583.56 49.47C583.82 49.9033 583.95 50.5967 583.95 51.55C583.95 52.1567 583.907 52.72 583.82 53.24C583.733 53.6733 583.69 54.1066 583.69 54.54C583.69 56.7933 583.863 59.0033 584.21 61.17C584.557 63.3367 585.25 65.2866 586.29 67.02C587.33 68.6666 588.76 70.0533 590.58 71.18C592.4 72.22 594.827 72.74 597.86 72.74C601.673 72.74 604.88 71.96 607.48 70.4C610.167 68.7533 612.377 66.9767 614.11 65.07C615.93 63.0767 617.36 61.3 618.4 59.74C619.44 58.0933 620.307 57.27 621 57.27C622.127 57.27 622.69 57.8333 622.69 58.96ZM577.06 53.24C577.06 52.8933 576.973 52.59 576.8 52.33C576.627 51.9833 576.54 51.68 576.54 51.42C576.54 51.0733 576.627 50.77 576.8 50.51C576.973 50.25 577.06 49.9033 577.06 49.47C577.06 49.21 576.973 49.0366 576.8 48.95C576.627 48.7767 576.54 48.6033 576.54 48.43C575.76 48.6033 574.937 49.34 574.07 50.64C573.29 51.94 572.51 53.4567 571.73 55.19C571.037 56.9233 570.473 58.7 570.04 60.52C569.607 62.2533 569.39 63.6833 569.39 64.81C569.39 65.4166 569.563 66.4133 569.91 67.8C570.257 69.1867 570.647 70.0966 571.08 70.53C572.553 67.4966 573.897 64.55 575.11 61.69C576.41 58.83 577.06 56.0133 577.06 53.24Z" fill="black"/>
<path d="M658.74 27.24C657.613 28.54 656.01 29.84 653.93 31.14C651.85 32.3533 649.77 33.48 647.69 34.52C645.61 35.56 643.79 36.47 642.23 37.25C640.67 37.9433 639.89 38.42 639.89 38.68C639.89 38.94 640.063 39.72 640.41 41.02C640.756 42.32 641.146 43.88 641.58 45.7C642.1 47.4333 642.62 49.2533 643.14 51.16C643.66 53.0667 644.093 54.7567 644.44 56.23C644.613 57.0967 644.83 58.2233 645.09 59.61C645.35 60.9967 645.566 62.3833 645.74 63.77C646 65.1567 646.216 66.4133 646.39 67.54C646.563 68.58 646.65 69.1433 646.65 69.23C646.65 70.53 646.433 71.8733 646 73.26C645.566 74.6467 644.873 75.34 643.92 75.34C643.4 75.34 642.923 75.1233 642.49 74.69C642.056 74.2567 641.666 73.78 641.32 73.26C640.973 72.6533 640.713 72.09 640.54 71.57C640.366 71.05 640.28 70.66 640.28 70.4C640.28 70.2267 640.28 69.9667 640.28 69.62C640.366 69.2733 640.41 68.8833 640.41 68.45C640.41 66.8033 640.15 64.42 639.63 61.3C639.456 60.3467 639.11 58.8733 638.59 56.88C638.07 54.8867 637.55 52.85 637.03 50.77C636.423 48.3433 635.73 45.7 634.95 42.84C634.603 41.6266 634.386 41.02 634.3 41.02C633.693 41.02 632.653 41.41 631.18 42.19C629.793 42.8833 628.19 43.7933 626.37 44.92C624.55 45.96 622.643 47.13 620.65 48.43C618.656 49.6433 616.793 50.8133 615.06 51.94C613.326 52.98 611.853 53.89 610.64 54.67C609.34 55.3633 608.56 55.71 608.3 55.71C607.173 55.71 606.263 55.32 605.57 54.54C604.876 53.76 604.53 52.8933 604.53 51.94C604.53 51.42 605.266 50.6833 606.74 49.73C608.126 48.69 609.903 47.5633 612.07 46.35C614.15 45.1366 616.446 43.88 618.96 42.58C621.386 41.28 623.64 40.11 625.72 39.07C627.886 38.03 629.663 37.1633 631.05 36.47C632.523 35.7766 633.26 35.43 633.26 35.43C632.48 31.4433 631.83 27.89 631.31 24.77C630.876 22.0833 630.443 19.6133 630.01 17.36C629.663 15.1067 629.49 13.8933 629.49 13.72C629.49 12.5933 629.706 11.77 630.14 11.25C630.66 10.6433 631.223 10.34 631.83 10.34C632.783 10.34 633.39 10.99 633.65 12.29C634.603 16.97 635.47 21.13 636.25 24.77C637.116 28.41 637.94 31.3566 638.72 33.61C639.5 33.4366 640.843 32.96 642.75 32.18C644.656 31.3133 646.65 30.4033 648.73 29.45C650.81 28.4967 652.673 27.6733 654.32 26.98C656.053 26.2 657.05 25.81 657.31 25.81C657.83 25.81 658.133 25.9833 658.22 26.33C658.393 26.6767 658.566 26.98 658.74 27.24Z" fill="black"/>
<path d="M674.123 77.68C674.123 78.2 673.863 78.72 673.343 79.24C672.823 79.6733 672.217 80.1067 671.523 80.54C670.917 80.8867 670.31 81.19 669.703 81.45C669.097 81.6233 668.75 81.71 668.663 81.71C667.883 81.71 667.277 81.5367 666.843 81.19C666.497 80.7567 666.193 80.3233 665.933 79.89C665.76 79.37 665.63 78.8933 665.543 78.46C665.543 78.0267 665.543 77.7233 665.543 77.55C665.543 77.2033 665.63 76.77 665.803 76.25C665.977 75.6433 666.237 75.08 666.583 74.56C666.93 74.04 667.32 73.6067 667.753 73.26C668.273 72.8267 668.837 72.61 669.443 72.61C670.57 72.61 671.61 73.0867 672.563 74.04C673.603 74.9933 674.123 76.2067 674.123 77.68Z" fill="black"/>
</svg>
